<svg width="297" height="322" viewBox="0 0 297 322" fill="none" xmlns="http://www.w3.org/2000/svg">
<path d="M244.021 200.242C244.021 196.048 243.519 191.868 242.527 187.793C242.506 187.71 242.454 187.638 242.381 187.593C242.307 187.549 242.219 187.535 242.136 187.555C242.053 187.575 241.981 187.628 241.936 187.701C241.892 187.774 241.878 187.862 241.898 187.946C242.886 191.97 243.382 196.099 243.376 200.242C243.376 219.706 230.57 242.872 211.446 246.592C210.799 243.398 209.423 240.397 207.426 237.822C205.428 235.247 202.863 233.168 199.931 231.748L140.588 202.875C140.199 196.676 141.054 190.463 143.102 184.6C143.13 184.521 143.126 184.434 143.091 184.358C143.056 184.282 142.993 184.223 142.915 184.192C142.875 184.176 142.832 184.168 142.789 184.168C142.746 184.169 142.703 184.178 142.663 184.196C142.624 184.213 142.588 184.238 142.558 184.27C142.529 184.301 142.506 184.339 142.491 184.379C140.451 190.227 139.591 196.421 139.96 202.603L66.6736 167.055C61.6089 164.607 55.7804 164.266 50.4643 166.105C45.1483 167.945 40.7779 171.817 38.3102 176.872L33.5207 186.757L27.865 184.039C26.018 183.144 23.8912 183.019 21.9518 183.691C20.0124 184.363 18.419 185.777 17.5217 187.623L0.775424 222.101C-0.119764 223.948 -0.245159 226.075 0.426788 228.014C1.09873 229.953 2.51306 231.547 4.35907 232.444L187.108 321.22C188.021 321.665 189.012 321.925 190.026 321.986C191.04 322.047 192.056 321.907 193.016 321.574C193.975 321.241 194.859 320.722 195.618 320.046C196.376 319.37 196.993 318.551 197.434 317.636L214.197 283.158C215.087 281.313 215.21 279.191 214.538 277.255C213.866 275.32 212.455 273.729 210.614 272.832L204.941 270.064L209.747 260.179C211.698 256.181 212.334 251.669 211.565 247.288C230.995 243.484 244.021 219.961 244.021 200.242ZM4.63081 231.799C2.9398 230.971 1.64542 229.508 1.03106 227.729C0.416707 225.949 0.532425 223.999 1.35288 222.305L18.0992 187.827C18.507 186.986 19.0769 186.234 19.7761 185.613C20.4754 184.993 21.2902 184.517 22.1739 184.213C23.0576 183.908 23.9927 183.781 24.9256 183.839C25.8585 183.896 26.7709 184.138 27.6103 184.549L39.4991 190.341C40.3374 190.747 41.0873 191.314 41.7059 192.011C42.3245 192.707 42.7997 193.519 43.1042 194.399C43.4087 195.279 43.5365 196.211 43.4804 197.141C43.4242 198.071 43.1852 198.98 42.777 199.818L26.0307 234.295C25.21 235.988 23.7509 237.286 21.974 237.904C20.197 238.522 18.2475 238.409 16.5536 237.59L4.63081 231.799ZM19.339 238.932C20.8424 238.994 22.3311 238.615 23.6224 237.843C24.9137 237.07 25.9514 235.938 26.6082 234.584L38.4971 210.008L183.49 280.441L171.601 305.017C170.93 306.383 170.675 307.917 170.868 309.426C171.061 310.936 171.694 312.356 172.688 313.509L19.339 238.932ZM210.325 273.342C211.165 273.746 211.916 274.313 212.537 275.009C213.157 275.704 213.634 276.516 213.94 277.396C214.246 278.277 214.375 279.209 214.321 280.139C214.266 281.07 214.027 281.98 213.62 282.819L196.857 317.296C196.45 318.135 195.883 318.885 195.186 319.503C194.49 320.122 193.678 320.597 192.798 320.902C191.918 321.206 190.986 321.334 190.056 321.278C189.126 321.222 188.217 320.983 187.379 320.574L175.491 314.783C173.801 313.959 172.507 312.499 171.892 310.722C171.278 308.945 171.393 306.997 172.213 305.306L188.959 270.828C189.367 269.989 189.936 269.239 190.634 268.62C191.332 268.001 192.145 267.526 193.027 267.222C193.908 266.917 194.842 266.79 195.773 266.846C196.704 266.902 197.615 267.142 198.453 267.55L210.325 273.342ZM209.17 259.754L204.364 269.639L198.691 266.888C197.778 266.442 196.786 266.18 195.771 266.118C194.757 266.056 193.74 266.194 192.779 266.525C191.819 266.857 190.933 267.374 190.172 268.049C189.412 268.723 188.792 269.54 188.348 270.454L183.864 279.864L38.8367 209.516L43.3545 200.191C44.2509 198.346 44.3787 196.221 43.7101 194.282C43.0414 192.343 41.6308 190.748 39.7878 189.848L34.1152 187.097L38.9047 177.212C41.2958 172.305 45.5348 168.547 50.6925 166.761C55.8501 164.975 61.5055 165.307 66.4189 167.684L199.642 232.41C204.533 234.795 208.281 239.019 210.066 244.158C211.852 249.298 211.53 254.936 209.17 259.839V259.754Z" fill="#0958FE"/>
<path d="M160.086 103.892C168.578 98.7964 168.884 96.4526 167.203 97.098C164.621 97.9641 162.753 98.4567 161.003 98.8983C168.391 91.8838 167.474 89.54 166.099 90.661C163.653 92.5632 161.003 94.6183 158.812 96.2827C166.285 87.485 165.708 83.6636 164.434 85.0902C162.413 87.3491 159.237 91.0686 156.774 93.6842C162.158 85.0562 160.171 85.345 158.014 87.9605C155.484 91.0346 150.1 97.3357 149.811 97.9811C149.557 98.7 149.392 99.4472 149.318 100.206C144.359 94.7542 143.204 96.3507 144.359 97.9641C146.304 100.77 147.795 103.865 148.775 107.136C148.765 109.233 148.566 111.324 148.18 113.386C147.926 113.912 146.822 115.967 145.378 118.481C148.582 121.374 152.631 123.16 156.927 123.576C157.59 121.776 158.184 120.077 158.626 118.6C160.46 113.046 160.867 111.806 159.95 108.528C159.203 106.032 158.49 104.826 160.086 103.892Z" fill="#FBFBFB"/>
<path d="M139.705 96.9961C139.705 96.9961 136.852 85.4129 137.174 79.7233C137.531 73.3882 135.816 75.5112 135.017 77.6682C134.219 79.8252 132.793 85.8885 131.213 83.6466C130.585 82.2029 130.041 81.1499 129.6 80.2498C128.217 76.2299 127.083 72.1291 126.203 67.9703C125.472 64.3187 124.623 64.8962 124.504 65.4736C124.131 67.6099 124.057 69.7878 124.284 71.9445C120.122 66.6795 117.881 66.4077 120.887 72.3182C124.827 80.1479 128.105 89.4381 127.68 98.168C131.714 99.0269 135.914 98.6176 139.705 96.9961Z" fill="#FBFBFB"/>
<path d="M82.367 127.109L88.1246 131.389L81.331 132.595C78.9532 121.844 78.3927 122.014 77.3737 117.802C73.2975 116.935 74.5713 112.129 77.3737 113.657C78.7324 114.371 79.2249 114.286 79.208 113.42C79.5986 106.269 84.9656 104.027 88.9398 111.076C92.9141 118.124 95.156 132.051 82.367 127.109Z" fill="#FBFBFB"/>
<path d="M296.214 275.533C296.332 275.261 296.395 274.968 296.4 274.671C296.405 274.375 296.352 274.08 296.243 273.804C296.134 273.528 295.972 273.276 295.766 273.063C295.56 272.849 295.314 272.679 295.042 272.56L277.48 264.816C273.782 263.201 270.846 260.228 269.277 256.51C269.277 256.324 262.33 240.104 262.755 241.123C262.579 240.721 262.254 240.403 261.849 240.235C261.444 240.068 260.989 240.063 260.581 240.223L247.401 245.471C247.195 245.556 247.007 245.682 246.849 245.84C246.691 245.998 246.566 246.186 246.481 246.393C246.396 246.6 246.352 246.821 246.353 247.045C246.353 247.268 246.398 247.489 246.484 247.696C247.401 249.921 243.087 239.662 255.537 269.333C256.553 271.756 258.07 273.937 259.987 275.734C261.904 277.531 264.178 278.903 266.661 279.762L277.718 283.566C281.236 284.797 285.088 284.662 288.511 283.187C291.933 281.711 294.676 279.004 296.197 275.601C296.197 275.601 296.214 275.567 296.214 275.533ZM247.639 246.065L260.819 240.8C261.073 240.7 261.357 240.704 261.609 240.812C261.86 240.92 262.058 241.124 262.161 241.378L267.069 252.944L251.919 259.041L247.062 247.441C247.009 247.313 246.982 247.175 246.983 247.037C246.983 246.898 247.011 246.761 247.065 246.633C247.118 246.505 247.197 246.389 247.295 246.292C247.394 246.195 247.511 246.117 247.639 246.065ZM277.939 282.972L266.865 279.15C264.468 278.325 262.273 277.003 260.423 275.27C258.574 273.537 257.111 271.433 256.131 269.096L252.174 259.636L267.324 253.538L268.682 256.748C270.303 260.614 273.341 263.714 277.174 265.41L294.753 273.155C295.134 273.343 295.431 273.667 295.585 274.063C295.74 274.459 295.739 274.899 295.585 275.295C294.139 278.551 291.523 281.146 288.256 282.568C284.989 283.989 281.307 284.133 277.939 282.972Z" fill="#0958FE"/>
<path d="M146.583 174.155C146.543 174.543 146.36 174.903 146.07 175.164C145.78 175.426 145.403 175.571 145.012 175.571C144.622 175.571 144.245 175.426 143.955 175.164C143.665 174.903 143.482 174.543 143.441 174.155C143.482 173.766 143.665 173.406 143.955 173.145C144.245 172.883 144.622 172.739 145.012 172.739C145.403 172.739 145.78 172.883 146.07 173.145C146.36 173.406 146.543 173.766 146.583 174.155Z" fill="#0958FE"/>
<path d="M170.175 156.712C170.134 157.101 169.951 157.46 169.661 157.722C169.371 157.983 168.994 158.128 168.604 158.128C168.213 158.128 167.836 157.983 167.546 157.722C167.256 157.46 167.073 157.101 167.033 156.712C167.073 156.324 167.256 155.964 167.546 155.702C167.836 155.441 168.213 155.296 168.604 155.296C168.994 155.296 169.371 155.441 169.661 155.702C169.951 155.964 170.134 156.324 170.175 156.712Z" fill="#0958FE"/>
<path d="M198.351 166.665C198.311 167.053 198.128 167.413 197.837 167.674C197.547 167.936 197.171 168.081 196.78 168.081C196.389 168.081 196.013 167.936 195.723 167.674C195.432 167.413 195.249 167.053 195.209 166.665C195.249 166.276 195.432 165.916 195.723 165.655C196.013 165.393 196.389 165.249 196.78 165.249C197.171 165.249 197.547 165.393 197.837 165.655C198.128 165.916 198.311 166.276 198.351 166.665Z" fill="#0958FE"/>
<path d="M228.243 158.292C228.203 158.68 228.02 159.04 227.73 159.301C227.439 159.563 227.063 159.708 226.672 159.708C226.282 159.708 225.905 159.563 225.615 159.301C225.324 159.04 225.142 158.68 225.101 158.292C225.142 157.903 225.324 157.543 225.615 157.282C225.905 157.02 226.282 156.876 226.672 156.876C227.063 156.876 227.439 157.02 227.73 157.282C228.02 157.543 228.203 157.903 228.243 158.292Z" fill="#0958FE"/>
<path d="M244.905 181.475C244.905 181.894 244.738 182.295 244.442 182.592C244.146 182.888 243.744 183.054 243.325 183.054C242.906 183.054 242.504 182.888 242.208 182.592C241.912 182.295 241.746 181.894 241.746 181.475C241.746 181.056 241.912 180.654 242.208 180.358C242.504 180.062 242.906 179.895 243.325 179.895C243.744 179.895 244.146 180.062 244.442 180.358C244.738 180.654 244.905 181.056 244.905 181.475Z" fill="#0958FE"/>
<path d="M163.653 141.104C163.653 141.523 163.486 141.924 163.19 142.221C162.894 142.517 162.492 142.683 162.073 142.683C161.654 142.683 161.253 142.517 160.956 142.221C160.66 141.924 160.494 141.523 160.494 141.104C160.494 140.685 160.66 140.283 160.956 139.987C161.253 139.691 161.654 139.524 162.073 139.524C162.492 139.524 162.894 139.691 163.19 139.987C163.486 140.283 163.653 140.685 163.653 141.104Z" fill="#0958FE"/>
<path d="M192.356 134.378C192.315 134.766 192.133 135.126 191.842 135.388C191.552 135.649 191.175 135.794 190.785 135.794C190.394 135.794 190.018 135.649 189.727 135.388C189.437 135.126 189.254 134.766 189.214 134.378C189.254 133.99 189.437 133.63 189.727 133.368C190.018 133.107 190.394 132.962 190.785 132.962C191.175 132.962 191.552 133.107 191.842 133.368C192.133 133.63 192.315 133.99 192.356 134.378Z" fill="#0958FE"/>
<path d="M198.351 108.341C198.311 108.73 198.128 109.09 197.837 109.351C197.547 109.613 197.171 109.757 196.78 109.757C196.389 109.757 196.013 109.613 195.723 109.351C195.432 109.09 195.249 108.73 195.209 108.341C195.249 107.953 195.432 107.593 195.723 107.332C196.013 107.07 196.389 106.925 196.78 106.925C197.171 106.925 197.547 107.07 197.837 107.332C198.128 107.593 198.311 107.953 198.351 108.341Z" fill="#0958FE"/>
<path d="M228.243 100.223C228.203 100.612 228.02 100.971 227.73 101.233C227.439 101.494 227.063 101.639 226.672 101.639C226.282 101.639 225.905 101.494 225.615 101.233C225.324 100.971 225.142 100.612 225.101 100.223C225.142 99.8345 225.324 99.4748 225.615 99.2133C225.905 98.9518 226.282 98.8071 226.672 98.8071C227.063 98.8071 227.439 98.9518 227.73 99.2133C228.02 99.4748 228.203 99.8345 228.243 100.223Z" fill="#0958FE"/>
<path d="M235.665 72.6069C235.665 73.0258 235.499 73.4276 235.203 73.7238C234.907 74.02 234.505 74.1864 234.086 74.1864C233.667 74.1864 233.265 74.02 232.969 73.7238C232.673 73.4276 232.506 73.0258 232.506 72.6069C232.506 72.188 232.673 71.7863 232.969 71.49C233.265 71.1938 233.667 71.0274 234.086 71.0274C234.505 71.0274 234.907 71.1938 235.203 71.49C235.499 71.7863 235.665 72.188 235.665 72.6069Z" fill="#0958FE"/>
<path d="M274.882 111.416L266.967 112.655L265.71 104.724C265.71 104.677 265.7 104.631 265.681 104.588C265.661 104.545 265.633 104.508 265.597 104.477C265.561 104.447 265.52 104.424 265.475 104.412C265.429 104.399 265.382 104.396 265.336 104.404C265.29 104.411 265.245 104.429 265.207 104.455C265.168 104.481 265.135 104.516 265.111 104.556C265.087 104.596 265.072 104.641 265.067 104.688C265.062 104.734 265.067 104.781 265.082 104.826L266.322 112.757L258.39 113.997C258.343 113.997 258.297 114.007 258.254 114.026C258.212 114.046 258.174 114.075 258.143 114.11C258.113 114.146 258.091 114.188 258.078 114.233C258.065 114.278 258.063 114.325 258.07 114.371C258.078 114.418 258.095 114.462 258.121 114.501C258.148 114.539 258.182 114.572 258.222 114.596C258.262 114.62 258.307 114.636 258.354 114.641C258.4 114.646 258.448 114.641 258.492 114.626L266.423 113.386L267.663 121.317C267.67 121.36 267.685 121.4 267.707 121.437C267.73 121.473 267.759 121.505 267.794 121.531C267.829 121.556 267.868 121.574 267.91 121.584C267.951 121.594 267.995 121.596 268.037 121.589C268.079 121.582 268.12 121.567 268.157 121.545C268.193 121.523 268.225 121.493 268.25 121.458C268.275 121.424 268.294 121.384 268.304 121.343C268.314 121.301 268.315 121.258 268.309 121.215L267.086 113.284L275.017 112.044C275.062 112.038 275.105 112.024 275.143 112.001C275.181 111.978 275.214 111.947 275.24 111.91C275.266 111.874 275.284 111.832 275.293 111.788C275.302 111.745 275.302 111.699 275.292 111.656C275.283 111.612 275.265 111.571 275.238 111.534C275.212 111.498 275.178 111.468 275.14 111.445C275.101 111.423 275.058 111.408 275.014 111.403C274.969 111.398 274.924 111.402 274.882 111.416Z" fill="#0958FE"/>
<path d="M62.3088 34.5796C62.3341 31.9793 61.6406 29.4225 60.3047 27.1915C58.7959 24.9366 56.6664 23.1669 54.1734 22.0963C54.1267 22.0775 54.0761 22.07 54.0259 22.0743C53.9757 22.0785 53.9272 22.0945 53.8842 22.121C53.8413 22.1474 53.8052 22.1835 53.7787 22.2264C53.7522 22.2693 53.7362 22.3178 53.7319 22.368C53.669 25.0716 54.3695 27.7382 55.753 30.0618C57.0427 31.9867 58.7946 33.5575 60.8482 34.6305C58.0286 34.8264 55.3952 36.1095 53.5033 38.2093C51.6114 40.3091 50.6087 43.0615 50.7068 45.8862C50.8048 48.7109 51.9958 51.3871 54.0287 53.3507C56.0616 55.3143 58.7776 56.4118 61.604 56.4118C64.4304 56.4118 67.1463 55.3143 69.1792 53.3507C71.2122 51.3871 72.4032 48.7109 72.5012 45.8862C72.5992 43.0615 71.5966 40.3091 69.7046 38.2093C67.8127 36.1095 65.1794 34.8264 62.3598 34.6305L62.3088 34.5796ZM54.3773 22.8945C56.5849 23.8814 58.4532 25.4964 59.7489 27.5382C61.0446 29.5799 61.7105 31.958 61.6634 34.3758C59.4584 33.39 57.592 31.7776 56.2965 29.7392C55.001 27.7008 54.3335 25.3264 54.3773 22.9115V22.8945ZM62.0031 55.8097C59.9675 55.8097 57.9775 55.206 56.285 54.0751C54.5924 52.9441 53.2732 51.3367 52.4942 49.456C51.7152 47.5753 51.5114 45.5059 51.9085 43.5094C52.3057 41.5128 53.2859 39.6789 54.7253 38.2395C56.1647 36.8001 57.9986 35.8199 59.9952 35.4227C61.9917 35.0256 64.0611 35.2294 65.9418 36.0084C67.8225 36.7874 69.4299 38.1066 70.5609 39.7992C71.6918 41.4917 72.2955 43.4817 72.2955 45.5173C72.2955 48.2486 71.2116 50.8682 69.2819 52.8011C67.3522 54.734 64.7344 55.8221 62.0031 55.8266V55.8097Z" fill="#0958FE"/>
<path d="M292.783 187.436C292.783 186.621 291.237 185.245 280.894 181.288C274.899 179.012 264.436 173.968 259.018 171.267C259.332 169.66 259.513 168.03 259.562 166.393C259.559 166.335 259.543 166.278 259.513 166.227C259.483 166.177 259.442 166.135 259.392 166.104C241.965 156.807 223.568 149.454 204.534 144.178C200.607 143.071 196.489 142.822 192.458 143.448C213.783 124.202 234.025 103.79 253.091 82.3048C253.128 82.2494 253.147 82.1844 253.147 82.118C253.147 82.0516 253.128 81.9866 253.091 81.9312C252.089 80.2328 251.053 78.5344 249.966 77.0737C253.601 72.0974 259.562 67.5796 260.564 64.2508C261.07 62.4629 261.214 60.5922 260.989 58.7479C260.258 51.0032 267.137 35.5477 262.432 34.9702C261.617 34.9702 259.953 36.0402 253.94 45.2795C250.866 50.0181 243.75 59.2914 238.383 65.8812C236.502 64.6999 234.504 63.7153 232.421 62.943C232.369 62.9079 232.307 62.8892 232.243 62.8892C232.18 62.8892 232.118 62.9079 232.065 62.943C207.652 90.581 181.201 116.35 152.936 140.034C155.11 135.567 157.573 129.843 160.664 122.523C160.664 122.353 162.192 120.825 158.965 117.886C160.851 112.146 161.003 111.314 159.747 107.203C159.169 105.284 159.033 104.656 160.086 104.01C170.158 97.9981 168.578 96.011 166.88 96.5715C164.842 97.2508 163.245 97.7094 161.785 98.083C169.343 90.7119 167.135 88.9796 165.572 90.1854L160.477 94.2277C167.118 85.7356 165.283 83.154 163.874 84.6486L158.354 90.9158C159.136 89.6778 159.763 88.3488 160.222 86.9585C160.511 85.8205 159.764 85.5488 158.982 86.0583C157.451 87.3993 156.083 88.9156 154.906 90.5761C151.509 94.5334 149.403 97.1659 149.182 97.6415C148.989 98.1921 148.852 98.7612 148.775 99.3399C146.21 96.6054 144.376 95.4675 143.578 96.1129C143.153 96.4696 143.221 97.2169 143.782 97.9811C145.696 100.746 147.163 103.795 148.129 107.017C148.085 108.996 147.915 110.97 147.62 112.927C146.861 112.758 146.072 112.777 145.323 112.985C144.574 113.192 143.887 113.581 143.323 114.116L142.219 94.3296C142.117 94.1597 142.559 92.2915 138.703 91.1366C137.832 87.3477 137.376 83.4751 137.345 79.5874C137.565 75.766 137.005 75.1545 136.512 75.0526C135.612 74.8658 134.814 76.751 134.576 77.3964C133.965 79.0948 132.776 83.5277 131.791 83.6805C131.604 83.6805 131.434 83.5277 131.315 83.3578C128.988 78.0758 130.109 82.101 127.613 73.0315C126.339 68.3609 126.118 64.6414 124.759 64.6244C124.58 64.6341 124.41 64.7052 124.277 64.8258C124.143 64.9465 124.056 65.1093 124.029 65.2868C123.693 67.1178 123.591 68.9838 123.723 70.8406C122.857 69.8215 120.327 66.9003 119.324 67.5966C117.269 68.9893 124.776 77.1926 126.679 91.6121C122.585 93.1407 122.993 95.0089 122.993 95.1957L125.014 126.294L101.61 133.376C101.696 132.515 101.549 131.647 101.185 130.862C102.428 130.839 103.622 130.376 104.555 129.555C105.489 128.734 106.1 127.608 106.281 126.379C106.416 125.431 106.286 124.464 105.906 123.585C105.525 122.707 104.908 121.951 104.124 121.402C105.18 121.087 106.109 120.445 106.777 119.567C107.444 118.689 107.815 117.622 107.835 116.52C107.856 115.417 107.526 114.337 106.892 113.435C106.259 112.532 105.355 111.855 104.311 111.5C105.116 110.808 105.689 109.886 105.954 108.857C106.219 107.829 106.163 106.745 105.793 105.749C105.423 104.754 104.757 103.896 103.885 103.29C103.012 102.685 101.976 102.361 100.914 102.363C101.394 101.438 101.587 100.391 101.467 99.3558C101.346 98.3206 100.919 97.3453 100.239 96.5556C99.5585 95.7659 98.6575 95.1981 97.6516 94.9254C96.6458 94.6528 95.5814 94.6878 94.5956 95.0259C94.743 93.9639 94.5595 92.8823 94.0699 91.9283C93.5804 90.9744 92.8086 90.1946 91.8599 89.6952C90.9111 89.1957 89.8314 89.0009 88.7679 89.1373C87.7044 89.2736 86.7089 89.7345 85.9168 90.4572C85.7413 89.3232 85.2103 88.2743 84.4003 87.4615C83.5903 86.6487 82.5432 86.1141 81.4099 85.9346C80.2766 85.7552 79.1155 85.9402 78.0941 86.463C77.0726 86.9858 76.2436 87.8194 75.7263 88.8437C75.1989 87.8992 74.3908 87.1421 73.414 86.6773C72.4371 86.2126 71.3399 86.0631 70.2744 86.2498C69.2088 86.4364 68.2277 86.9498 67.4669 87.7189C66.7062 88.4879 66.2034 89.4746 66.0284 90.5421C65.2007 89.9139 64.2036 89.5483 63.1659 89.4924C62.1283 89.4365 61.0977 89.693 60.2073 90.2287C59.3169 90.7645 58.6075 91.5548 58.1707 92.4977C57.734 93.4406 57.5899 94.4928 57.7572 95.5184C56.7514 95.2106 55.676 95.2141 54.6723 95.5286C53.6686 95.8431 52.7834 96.4537 52.1331 97.2804C51.4827 98.1071 51.0977 99.1112 51.0284 100.161C50.9591 101.21 51.2088 102.256 51.7448 103.161C50.5011 103.181 49.3051 103.643 48.3713 104.465C47.4375 105.286 46.8271 106.414 46.6496 107.645C46.5059 108.595 46.6337 109.566 47.0184 110.447C47.403 111.328 48.0288 112.081 48.8236 112.621C47.7718 112.949 46.8506 113.601 46.1923 114.484C45.534 115.367 45.1723 116.436 45.1591 117.538C45.1459 118.639 45.4818 119.716 46.1188 120.615C46.7558 121.514 47.661 122.188 48.7047 122.54C47.9123 123.235 47.3502 124.155 47.0927 125.177C46.8353 126.199 46.8948 127.276 47.2633 128.263C47.6318 129.251 48.2919 130.103 49.156 130.707C50.0201 131.311 51.0474 131.637 52.1015 131.644C51.6294 132.571 51.4458 133.619 51.5744 134.652C51.703 135.685 52.1378 136.656 52.8229 137.44C53.508 138.223 54.412 138.784 55.4185 139.05C56.425 139.315 57.4879 139.274 58.4705 138.93C58.317 139.997 58.4995 141.086 58.9926 142.045C59.4857 143.005 60.265 143.787 61.2224 144.283C62.1799 144.779 63.2681 144.966 64.3361 144.816C65.4042 144.666 66.3993 144.188 67.1833 143.448C67.3423 144.544 67.8478 145.562 68.6259 146.351C69.404 147.14 70.4139 147.66 71.5084 147.834C72.6028 148.009 73.7244 147.829 74.7093 147.321C75.6942 146.813 76.4909 146.003 76.9832 145.01C77.3384 145.659 77.828 146.224 78.4192 146.668C79.0104 147.112 79.6896 147.425 80.4115 147.586C81.1333 147.747 81.8811 147.752 82.605 147.6C83.3288 147.449 84.0121 147.145 84.609 146.708C85.5765 149.527 86.8704 152.224 88.4644 154.742C98.0604 169.484 110.917 176.821 129.668 176.125C130.636 177.602 135.935 184.617 147.892 185.789C160.324 186.978 194.734 173 197.264 171.947C214.825 176.568 231.86 182.994 248.098 191.122C248.15 191.166 248.216 191.19 248.285 191.19C248.353 191.19 248.419 191.166 248.471 191.122C249.609 189.746 250.747 188.302 251.868 186.774C260.632 191.02 262.755 193.16 269.192 191.122C276.75 188.659 293.258 192.192 292.783 187.436ZM144.512 97.7603C144.155 97.2508 144.121 96.8432 144.206 96.7583C144.291 96.6734 145.701 96.7583 148.877 100.291C148.673 101.752 148.554 103.586 148.452 105.386C147.488 102.678 146.163 100.113 144.512 97.7603ZM148.486 113.046C149.064 110.651 148.996 100.274 149.998 98.0151C150.252 97.4376 156.01 90.678 158.167 88.0624C158.61 87.4392 159.191 86.9275 159.865 86.5678C159.865 86.8396 159.73 88.2662 156.469 93.3615C155.636 94.2616 154.872 95.0599 154.295 95.5524C153.989 95.8411 154.414 96.3167 154.719 96.028C157.046 93.9389 161.921 88.1813 164.621 85.1751C164.723 85.0563 164.791 85.0053 164.791 84.9713C165.08 85.4639 164.332 89.0985 158.541 95.9091C157.912 96.3846 157.301 96.8092 156.723 97.1999C156.669 97.2526 156.634 97.323 156.626 97.3987C156.618 97.4743 156.637 97.5503 156.68 97.6132C156.723 97.6762 156.786 97.7221 156.859 97.7428C156.933 97.7635 157.011 97.7577 157.08 97.7264C161.36 94.8731 166.523 90.2704 166.744 90.5761C166.965 90.8818 166.591 93.0388 160.783 98.4907L158.897 99.1191C158.814 99.1393 158.742 99.1919 158.698 99.2651C158.653 99.3384 158.639 99.4264 158.66 99.5097C158.68 99.593 158.732 99.6649 158.806 99.7095C158.879 99.7541 158.967 99.7678 159.05 99.7475C167.05 97.7434 167.237 97.3188 167.661 97.3527C167.763 97.6415 166.659 99.6795 159.899 103.722C158.354 104.639 158.711 105.828 159.271 107.645C160.867 112.859 159.95 113.301 156.604 123.338C152.539 122.884 148.71 121.194 145.633 118.498C148.537 113.335 148.401 113.505 148.486 113.131V113.046ZM159.713 123.44C158.778 125.665 157.895 127.72 157.063 129.639C153.959 129.705 150.878 129.095 148.034 127.851C145.189 126.608 142.648 124.761 140.589 122.438C141.76 119.959 142.729 117.717 143.34 116.239C144.801 120.672 155.484 125.427 159.713 123.525V123.44ZM124.861 65.5755C124.861 65.2358 125.15 65.5755 125.32 65.7963C125.88 66.8493 126.441 71.0104 128.36 77.6852C127.243 75.6799 125.995 73.7508 124.623 71.9106C124.429 69.7975 124.509 67.6681 124.861 65.5755ZM121.176 72.1823C119.749 69.363 119.783 68.3949 119.902 68.276C120.021 68.1571 120.513 68.0892 122.959 70.8406C124.848 73.0878 126.509 75.5171 127.918 78.0928C129.643 80.8437 131.082 83.7631 132.215 86.8056C132.253 86.8743 132.315 86.9267 132.389 86.953C132.463 86.9793 132.544 86.9777 132.617 86.9485C132.69 86.9194 132.75 86.8646 132.785 86.7945C132.821 86.7244 132.83 86.6438 132.81 86.5678C132.504 85.7866 132.215 85.1072 131.944 84.4788C133.642 84.4788 134.729 79.6044 135.34 77.6852C135.816 76.4114 136.376 75.749 136.546 75.749C136.716 75.749 137.073 76.0037 136.869 79.6213C136.631 84.0712 138.415 92.4273 139.4 96.7073C135.748 98.2669 131.713 98.6929 127.816 97.9302C128.122 89.2004 125.099 80.029 121.176 72.1823ZM123.944 96.7923C127.222 100.104 138.975 99.4418 141.862 95.8072L142.185 101.565C139.412 102.929 136.383 103.691 133.295 103.803C130.207 103.914 127.13 103.371 124.267 102.21L123.944 96.7923ZM125.048 126.922L125.286 130.845C125.286 130.931 125.32 131.013 125.38 131.074C125.441 131.134 125.523 131.168 125.609 131.168C125.694 131.168 125.776 131.134 125.837 131.074C125.897 131.013 125.931 130.931 125.931 130.845C125.337 120.655 124.912 113.59 124.233 102.94C127.108 104.065 130.182 104.588 133.267 104.477C136.352 104.366 139.382 103.623 142.168 102.295L142.915 115.577C141.285 119.67 135.527 133.087 130.585 136.484C125.643 139.881 103.733 136.484 97.7547 135.278L125.048 126.922ZM77.6795 117.666C77.6642 117.606 77.6321 117.552 77.587 117.509C77.5418 117.467 77.4855 117.439 77.4247 117.428C73.8751 116.664 74.8262 112.57 77.2549 113.861C78.24 114.388 78.8004 114.507 79.1741 114.286C79.3136 114.18 79.423 114.04 79.4916 113.879C79.5601 113.718 79.5853 113.542 79.5647 113.369C79.9384 106.439 84.9317 104.486 88.6852 111.178C91.1479 115.56 93.118 123.321 90.3836 126.463C88.906 128.162 86.2565 128.281 82.469 126.82C82.3988 126.796 82.3224 126.797 82.2527 126.822C82.183 126.848 82.1242 126.897 82.0863 126.96C82.0484 127.024 82.0336 127.099 82.0446 127.173C82.0555 127.246 82.0914 127.314 82.1463 127.364L87.3265 131.253L81.5009 132.272C78.9703 120.893 78.5627 121.623 77.6795 117.666ZM89.1438 154.368C85.2034 148.305 83.2842 140.119 81.6538 132.9L87.9549 131.796C88.5812 132.889 89.279 133.938 90.0439 134.938C88.7545 135.249 87.5451 135.828 86.4942 136.637C86.4361 136.692 86.4004 136.766 86.394 136.846C86.3876 136.925 86.4109 137.005 86.4596 137.068C86.5082 137.131 86.5786 137.174 86.6571 137.189C86.7357 137.203 86.8168 137.188 86.8849 137.146C90.2817 134.514 94.0521 135.057 98.2302 135.941C104.531 137.129 125.643 140.543 130.942 136.909C134.169 134.701 137.735 128.417 140.283 123.118C142.372 125.414 144.923 127.243 147.767 128.487C150.612 129.731 153.687 130.361 156.791 130.336C147.076 152.687 144.07 155.065 133.014 156.067C121.459 157.155 109.815 156.853 98.3321 155.167C98.2848 155.155 98.2355 155.155 98.1881 155.166C98.1406 155.176 98.0962 155.198 98.0581 155.228C98.02 155.258 97.9892 155.297 97.968 155.34C97.9469 155.384 97.9359 155.432 97.9359 155.481C97.9359 155.529 97.9469 155.577 97.968 155.621C97.9892 155.665 98.02 155.703 98.0581 155.734C98.0962 155.764 98.1406 155.785 98.1881 155.796C98.2355 155.806 98.2848 155.806 98.3321 155.795C103.391 156.652 108.494 157.219 113.618 157.493L131.978 161.383C131.451 166.953 130.075 174.087 129.804 175.513C112.004 176.006 99.2832 169.96 89.1438 154.368ZM248.285 190.408C232.041 182.307 215.007 175.899 197.451 171.284C197.384 171.268 197.314 171.268 197.247 171.284C196.874 171.437 160.528 186.281 148.078 185.109C136.19 183.971 131.094 176.821 130.262 175.666C131.607 169.44 132.414 163.11 132.674 156.746C142.304 155.914 146.261 153.621 152.308 141.63C180.962 117.727 207.76 91.6837 232.472 63.7243C240.421 66.8493 247.164 72.9466 252.497 82.135C233.284 103.791 212.871 124.351 191.354 143.719C190.335 143.923 181.639 146.182 152.291 153.366C152.207 153.386 152.135 153.439 152.091 153.512C152.046 153.586 152.032 153.674 152.053 153.757C152.073 153.84 152.126 153.912 152.199 153.957C152.272 154.001 152.36 154.015 152.443 153.995L190.182 144.619C194.864 143.452 199.771 143.528 204.415 144.84C223.344 150.095 241.642 157.402 258.984 166.631C258.594 175.836 254.076 183.309 248.285 190.408Z" fill="#0958FE"/>
<path d="M24.2986 145.74L20.1544 146.471C19.2045 146.634 18.2285 146.415 17.4395 145.861C16.6505 145.307 16.1123 144.464 15.9424 143.515L15.2121 139.371C15.1874 139.297 15.1367 139.235 15.0694 139.195C15.002 139.156 14.9227 139.142 14.8459 139.156C14.7692 139.171 14.7004 139.213 14.6521 139.274C14.6039 139.335 14.5796 139.412 14.5837 139.49L15.314 143.634C15.3967 144.107 15.3848 144.592 15.279 145.061C15.1732 145.529 14.9757 145.972 14.6977 146.364C14.4198 146.755 14.0669 147.088 13.6596 147.343C13.2523 147.597 12.7987 147.768 12.3248 147.846L8.18067 148.577C8.10659 148.601 8.04397 148.652 8.00442 148.719C7.96487 148.787 7.95107 148.866 7.96559 148.943C7.9801 149.02 8.02194 149.088 8.08335 149.137C8.14476 149.185 8.22158 149.209 8.29955 149.205L12.4437 148.475C13.3937 148.312 14.3696 148.531 15.1586 149.085C15.9476 149.638 16.4858 150.481 16.6557 151.43L17.42 155.574C17.4447 155.648 17.4954 155.711 17.5627 155.75C17.63 155.79 17.7094 155.804 17.7861 155.789C17.8629 155.775 17.9317 155.733 17.98 155.671C18.0282 155.61 18.0525 155.533 18.0484 155.455L17.3181 151.311C17.1596 150.362 17.3807 149.388 17.9335 148.6C18.4863 147.812 19.3267 147.273 20.2733 147.099L24.4174 146.369C24.4915 146.344 24.5541 146.293 24.5937 146.226C24.6332 146.159 24.647 146.079 24.6325 146.003C24.618 145.926 24.5762 145.857 24.5148 145.809C24.4533 145.761 24.3765 145.736 24.2986 145.74ZM16.7237 149.766C16.1082 148.805 15.1372 148.127 14.0232 147.88C14.5008 147.578 14.9135 147.183 15.2371 146.72C15.5608 146.256 15.789 145.733 15.9084 145.18C16.5238 146.141 17.4948 146.819 18.6089 147.065C17.6481 147.681 16.9702 148.652 16.7237 149.766Z" fill="#0958FE"/>
<path d="M184.118 0L183.762 31.7772L203.48 65.9152L203.837 34.138L184.118 0Z" fill="#0958FE"/>
<path d="M180.671 57.3552L177.732 92.9369L203.005 67.6306L191.082 46.978L180.671 57.3552Z" fill="#0958FE"/>
</svg>
